inDegrees=yes
name=ik_S42_A11_T01
DataType=double
version=3
OpenSimVersion=4.3-2021-08-27-4bc7ad9
endheader
time	pelvis_tilt	pelvis_list	pelvis_rotation	pelvis_tx	pelvis_ty	pelvis_tz	hip_flexion_r	hip_adduction_r	hip_rotation_r	knee_angle_r	knee_angle_r_beta	ankle_angle_r	subtalar_angle_r	mtp_angle_r	hip_flexion_l	hip_adduction_l	hip_rotation_l	knee_angle_l	knee_angle_l_beta	ankle_angle_l	subtalar_angle_l	mtp_angle_l	lumbar_extension	lumbar_bending	lumbar_rotation	arm_flex_r	arm_add_r	arm_rot_r	elbow_flex_r	pro_sup_r	wrist_flex_r	wrist_dev_r	arm_flex_l	arm_add_l	arm_rot_l	elbow_flex_l	pro_sup_l	wrist_flex_l	wrist_dev_l
7.919999999999919	0.6369780939149463	-3.52606101946523	38.45463416237625	0	0.9399999999999999	0	35.18150568565398	-9.721476055815321	-9.276016862136077	41.34935463471052	0.7216823819504756	0	0	0	35.18150568565398	-9.721476055815321	-9.276016862136077	41.34935463471052	0.7216823819504756	0	0	0	-0.7098894657658116	-3.508965728076397	11.22511132798441	113.1998220934346	-8.3241319113078	34.54395343939572	46.42903700003596	36.29801077783631	0	0	9.355807816839638	-7.917959320358963	-13.33486769301129	6.373471217526268	125.3031096913616	0	0
7.939999999999919	0.6460947702075451	-3.526524985351621	38.43537993627421	0	0.9399999999999999	0	35.18420258421273	-9.72173921420184	-9.276455438519225	41.35193121427206	0.7217273517472643	0	0	0	35.18420258421273	-9.72173921420184	-9.276455438519225	41.35193121427206	0.7217273517472643	0	0	0	-0.7025058999742533	-3.515680562592389	11.23732329173866	113.2208155925033	-8.383312043824999	34.54306456031588	46.41699021680793	36.4772209128499	0	0	9.350472265386587	-7.922762189390094	-13.17659782157992	6.401803252417852	125.1714160372767	0	0
7.959999999999918	0.6553819972705356	-3.524936799064275	38.40482715892554	0	0.9399999999999999	0	35.18570059963704	-9.721885010598443	-9.276698657616473	41.35336529188912	0.721752381123411	0	0	0	35.18570059963704	-9.721885010598443	-9.276698657616473	41.35336529188912	0.721752381123411	0	0	0	-0.694602280772886	-3.519895567980247	11.23022735050335	113.2183349624398	-8.398826587518039	34.58518244105434	46.43003053531636	36.51982061009932	0	0	9.364400847966689	-7.925370408306692	-13.11095954397154	6.408808380061732	125.1352999692468	0	0
7.979999999999918	0.6778067421764916	-3.518029668156019	38.37708448976841	0	0.9399999999999999	0	35.18709083939859	-9.722019840379716	-9.276923869468732	41.35470022046542	0.7217756800223466	0	0	0	35.18709083939859	-9.722019840379716	-9.276923869468732	41.35470022046542	0.7217756800223466	0	0	0	-0.6725431259279481	-3.528663085154206	11.23339190359864	113.1926883808281	-8.462150576819516	34.70842154209905	46.46804466763015	36.54783535696752	0	0	9.372331328856307	-7.91841811590673	-13.09154306938617	6.410997979354121	125.1068318927552	0	0
7.999999999999917	0.6994633622247718	-3.506925269097704	38.34791838873591	0	0.9399999999999999	0	35.18959434454897	-9.722263377239997	-9.277330264778442	41.3570963832166	0.7218175009517682	0	0	0	35.18959434454897	-9.722263377239997	-9.277330264778442	41.3570963832166	0.7218175009517682	0	0	0	-0.6481596152845885	-3.534027992422555	11.2438574491531	113.11543070031	-8.583338752937003	34.86016608536455	46.60905299108884	36.51407632440429	0	0	9.384972343271848	-7.867671904929571	-13.08155034882493	6.488167428465569	125.0667050851889	0	0
8.019999999999918	0.7113679725481477	-3.492350987384842	38.29901117609106	0	0.9399999999999999	0	35.19190789116023	-9.722487849742151	-9.277705224719137	41.35931495247841	0.7218562222900704	0	0	0	35.19190789116023	-9.722487849742151	-9.277705224719137	41.35931495247841	0.7218562222900704	0	0	0	-0.6284451629833692	-3.531438372564215	11.27249770048302	113.0738179321501	-8.759831473935916	35.09931912222418	46.6762035237543	36.9004575193225	0	0	9.420521272622709	-7.809572507485444	-13.1015567147546	6.558495618774387	125.0179103130978	0	0
8.039999999999917	0.7740156408251454	-3.472898821557763	38.2467973718261	0	0.9399999999999999	0	35.1932532457346	-9.722617471979563	-9.277922289390107	41.3606129749075	0.7218788770552227	0	0	0	35.1932532457346	-9.722617471979563	-9.277922289390107	41.3606129749075	0.7218788770552227	0	0	0	-0.5661761604756005	-3.556017329189827	11.28976324403697	112.9728265980498	-8.942972714963103	35.31332392941788	46.66118745845433	37.08778310472552	0	0	9.377318686376967	-7.834850040492781	-13.17822921471116	6.559654600035294	124.9708926468991	0	0
8.059999999999917	0.8070129468286659	-3.470086543146416	38.21684034839922	0	0.9399999999999999	0	35.1941386236797	-9.722701497169544	-9.278063749303293	41.36147874861845	0.721893987657056	0	0	0	35.1941386236797	-9.722701497169544	-9.278063749303293	41.36147874861845	0.721893987657056	0	0	0	-0.5375415769481593	-3.575216289889107	11.30911697280131	112.9158396432096	-9.095367355369097	35.52459792576095	46.68392083141666	37.12316886591091	0	0	9.417820051344787	-7.816672349104342	-13.27741179020572	6.568792728882438	124.9260531592048	0	0
8.079999999999917	0.8429392743826229	-3.452754812278605	38.17446482687696	0	0.9399999999999999	0	35.19803746831684	-9.723079984866926	-9.278695997986427	41.36521171497503	0.7219591402108444	0	0	0	35.19803746831684	-9.723079984866926	-9.278695997986427	41.36521171497503	0.7219591402108444	0	0	0	-0.4954708924774141	-3.587017462774905	11.37864330130559	112.8449659400572	-9.530436365611221	35.95013704666535	46.89993055268059	36.94811356898276	0	0	9.417607076472791	-7.753800900822606	-13.32983770690384	6.593730357102348	124.7904135765484	0	0
8.099999999999916	0.8736967100234485	-3.457900765013119	38.18574214353674	0	0.9399999999999999	0	35.19890996825468	-9.723162479190705	-9.278835091915685	41.36606688202416	0.7219740656915064	0	0	0	35.19890996825468	-9.723162479190705	-9.278835091915685	41.36606688202416	0.7219740656915064	0	0	0	-0.4747424433363677	-3.609803983966891	11.37086061746664	112.8068988979964	-9.580589578727279	35.92096106273966	46.865769066264	36.9950918293034	0	0	9.446562497665083	-7.724717376961986	-13.40074243035186	6.601896431214756	124.7179853199892	0	0
8.119999999999916	0.8933975175295085	-3.448467426535113	38.1324558460425	0	0.9399999999999999	0	35.20245851185764	-9.723506694179324	-9.279410356621398	41.36946362822723	0.7220333500966045	0	0	0	35.20245851185764	-9.723506694179324	-9.279410356621398	41.36946362822723	0.7220333500966045	0	0	0	-0.4510200585704158	-3.61702353478205	11.42334529383409	112.7769656549579	-10.00137851600475	36.05487474849001	46.94701653779227	37.20282248535764	0	0	9.429144797915141	-7.679718111374907	-13.41517808206002	6.658782096055896	124.5009795666912	0	0
8.139999999999915	0.9310840735801764	-3.431475723476791	38.11275927450713	0	0.9399999999999999	0	35.20475684012555	-9.723729180807698	-9.27978248725185	41.37166668200103	0.7220718006385559	0	0	0	35.20475684012555	-9.723729180807698	-9.27978248725185	41.37166668200103	0.7220718006385559	0	0	0	-0.4084019679728891	-3.629322151357934	11.473352084312	112.6484792096145	-10.32367324861794	36.20276788150654	46.94493313108947	37.26842970730766	0	0	9.372494458600791	-7.637638818699821	-13.35622944045878	6.657227860921089	124.4170213354031	0	0
